<?xml version="1.0" standalone="no"?>
<!DOCTYPE svg PUBLIC "-//W3C//DTD SVG 20010904//EN"
 "http://www.w3.org/TR/2001/REC-SVG-20010904/DTD/svg10.dtd">
<svg version="1.0" xmlns="http://www.w3.org/2000/svg"
 width="250.000000pt" height="294.000000pt" viewBox="0 0 250.000000 294.000000"
 preserveAspectRatio="xMidYMid meet">
<metadata>
Created by potrace 1.12, written by Peter Selinger 2001-2015
</metadata>
<g transform="translate(0.000000,294.000000) scale(0.100000,-0.100000)"
fill="#000000" stroke="none">
<path d="M458 2476 c-53 -17 -100 -35 -105 -39 -11 -11 -11 -249 0 -271 9 -17
25 -37 95 -114 14 -16 20 -32 16 -41 -3 -9 -8 -25 -9 -36 -2 -11 -12 -45 -23
-75 -11 -30 -50 -149 -87 -265 -36 -115 -84 -265 -106 -332 -22 -67 -39 -131
-37 -142 2 -10 89 -92 193 -180 249 -211 332 -283 375 -321 59 -53 107 -94
131 -114 68 -56 299 -257 304 -266 3 -6 14 -10 23 -10 15 0 373 296 673 557
158 137 333 285 357 300 24 16 28 39 12 75 -5 13 -50 151 -101 308 -50 157
-101 314 -114 350 -13 36 -31 89 -40 119 l-17 53 55 57 c31 31 60 67 64 81 5
14 7 77 4 140 l-6 115 -100 42 c-55 23 -112 42 -127 42 -18 1 -51 -19 -110
-66 -45 -38 -85 -71 -88 -74 -3 -4 -32 -12 -65 -18 -310 -55 -363 -63 -420
-58 -51 4 -306 45 -386 62 -14 3 -66 39 -115 80 -104 87 -105 87 -246 41z
m1312 -272 l36 -6 48 -151 c41 -127 162 -499 245 -752 12 -38 25 -75 27 -82 3
-6 -41 -47 -98 -90 -57 -44 -172 -133 -256 -199 -84 -65 -174 -135 -200 -154
-26 -19 -112 -85 -191 -146 l-144 -112 -111 87 c-140 109 -295 228 -344 263
-20 15 -41 31 -47 35 -35 28 -112 90 -121 98 -6 6 -70 55 -142 109 -103 79
-128 103 -121 115 4 9 41 117 80 241 39 124 104 329 145 455 41 127 78 241 82
255 5 17 17 27 37 31 38 8 1028 11 1075 3z"/>
<path d="M715 1720 c-3 -5 -3 -31 1 -58 5 -37 16 -56 50 -91 l44 -43 67 7 c72
7 89 19 114 77 17 42 6 54 -63 67 -54 10 -118 26 -190 47 -9 3 -19 0 -23 -6z"/>
<path d="M1645 1705 c-44 -12 -106 -28 -137 -35 -32 -7 -58 -15 -58 -17 0 -4
48 -91 56 -102 2 -2 36 -9 76 -16 l73 -13 42 42 c32 33 43 54 48 89 7 47 2 78
-12 76 -4 -1 -44 -11 -88 -24z"/>
<path d="M1439 1593 c-1 -5 0 -87 1 -183 2 -166 10 -239 45 -390 19 -84 19
-83 -8 -96 -50 -24 -203 -107 -212 -115 -12 -11 -52 -12 -59 -1 -3 5 -40 26
-83 47 -43 22 -80 41 -83 45 -3 3 -18 13 -35 22 -16 10 -28 23 -26 30 2 7 7
33 12 58 4 25 13 72 19 105 13 69 22 360 13 423 -3 25 -11 42 -18 42 -13 0
-20 -68 -30 -276 -2 -51 -13 -138 -25 -195 -11 -56 -23 -126 -26 -154 l-6 -53
85 -53 c141 -88 200 -118 232 -119 19 0 60 19 110 50 44 27 110 66 148 86 73
40 77 49 57 123 -42 157 -76 405 -72 531 1 53 -7 80 -23 80 -8 0 -16 -3 -16
-7z"/>
<path d="M1131 1088 c-40 -100 -52 -138 -47 -146 3 -5 30 -22 61 -36 30 -15
57 -31 60 -37 9 -13 43 -11 68 5 12 8 42 25 67 39 25 14 46 31 48 39 1 7 -10
45 -26 83 l-29 70 -96 3 c-93 3 -97 2 -106 -20z"/>
</g>
</svg>
